<?xml version="1.0" encoding="UTF-8" standalone="no"?>
<!-- Created with Inkscape (http://www.inkscape.org/) -->

<svg
   width="166.23689mm"
   height="67.460823mm"
   viewBox="0 0 166.23689 67.460823"
   version="1.1"
   id="svg1"
   xml:space="preserve"
   inkscape:version="1.3 (0e150ed6c4, 2023-07-21)"
   sodipodi:docname="buzz-logo-light.svg"
   inkscape:export-filename="buzz-logo.png"
   inkscape:export-xdpi="96"
   inkscape:export-ydpi="96"
   xmlns:inkscape="http://www.inkscape.org/namespaces/inkscape"
   xmlns:sodipodi="http://sodipodi.sourceforge.net/DTD/sodipodi-0.dtd"
   xmlns:xlink="http://www.w3.org/1999/xlink"
   xmlns="http://www.w3.org/2000/svg"
   xmlns:svg="http://www.w3.org/2000/svg"><sodipodi:namedview
     id="namedview1"
     pagecolor="#ffffff"
     bordercolor="#000000"
     borderopacity="0.25"
     inkscape:showpageshadow="2"
     inkscape:pageopacity="0.0"
     inkscape:pagecheckerboard="0"
     inkscape:deskcolor="#d1d1d1"
     inkscape:document-units="mm"
     inkscape:zoom="1.4778115"
     inkscape:cx="219.58145"
     inkscape:cy="-74.772729"
     inkscape:window-width="1918"
     inkscape:window-height="1331"
     inkscape:window-x="1906"
     inkscape:window-y="1455"
     inkscape:window-maximized="0"
     inkscape:current-layer="layer2" /><defs
     id="defs1"><inkscape:path-effect
       effect="bspline"
       id="path-effect61"
       is_visible="true"
       lpeversion="1.3"
       weight="33.333333"
       steps="2"
       helper_size="0"
       apply_no_weight="true"
       apply_with_weight="true"
       only_selected="false"
       uniform="false" /><inkscape:path-effect
       effect="bspline"
       id="path-effect59"
       is_visible="true"
       lpeversion="1.3"
       weight="33.333333"
       steps="2"
       helper_size="0"
       apply_no_weight="true"
       apply_with_weight="true"
       only_selected="false"
       uniform="false" /><inkscape:path-effect
       effect="bspline"
       id="path-effect57"
       is_visible="true"
       lpeversion="1.3"
       weight="33.333333"
       steps="2"
       helper_size="0"
       apply_no_weight="true"
       apply_with_weight="true"
       only_selected="false"
       uniform="false" /><inkscape:path-effect
       effect="bspline"
       id="path-effect46"
       is_visible="true"
       lpeversion="1.3"
       weight="33.333333"
       steps="2"
       helper_size="0"
       apply_no_weight="true"
       apply_with_weight="true"
       only_selected="false"
       uniform="false" /><inkscape:path-effect
       effect="bspline"
       id="path-effect45"
       is_visible="true"
       lpeversion="1.3"
       weight="33.333333"
       steps="2"
       helper_size="0"
       apply_no_weight="true"
       apply_with_weight="true"
       only_selected="false"
       uniform="false" /><inkscape:path-effect
       effect="bspline"
       id="path-effect43"
       is_visible="true"
       lpeversion="1.3"
       weight="33.333333"
       steps="2"
       helper_size="0"
       apply_no_weight="true"
       apply_with_weight="true"
       only_selected="false"
       uniform="false" /><inkscape:path-effect
       effect="bspline"
       id="path-effect41"
       is_visible="true"
       lpeversion="1.3"
       weight="33.333333"
       steps="2"
       helper_size="0"
       apply_no_weight="true"
       apply_with_weight="true"
       only_selected="false"
       uniform="false" /><inkscape:path-effect
       effect="bspline"
       id="path-effect40"
       is_visible="true"
       lpeversion="1.3"
       weight="33.333333"
       steps="2"
       helper_size="0"
       apply_no_weight="true"
       apply_with_weight="true"
       only_selected="false"
       uniform="false" /><inkscape:path-effect
       effect="bspline"
       id="path-effect37"
       is_visible="true"
       lpeversion="1.3"
       weight="33.333333"
       steps="2"
       helper_size="0"
       apply_no_weight="true"
       apply_with_weight="true"
       only_selected="false"
       uniform="false" /><inkscape:path-effect
       effect="bspline"
       id="path-effect35"
       is_visible="true"
       lpeversion="1.3"
       weight="33.333333"
       steps="2"
       helper_size="0"
       apply_no_weight="true"
       apply_with_weight="true"
       only_selected="false"
       uniform="false" /><inkscape:path-effect
       effect="bspline"
       id="path-effect34"
       is_visible="true"
       lpeversion="1.3"
       weight="33.333333"
       steps="2"
       helper_size="0"
       apply_no_weight="true"
       apply_with_weight="true"
       only_selected="false"
       uniform="false" /><inkscape:path-effect
       effect="bspline"
       id="path-effect31"
       is_visible="true"
       lpeversion="1.3"
       weight="33.333333"
       steps="2"
       helper_size="0"
       apply_no_weight="true"
       apply_with_weight="true"
       only_selected="false"
       uniform="false" /><inkscape:path-effect
       effect="bspline"
       id="path-effect29"
       is_visible="true"
       lpeversion="1.3"
       weight="33.333333"
       steps="2"
       helper_size="0"
       apply_no_weight="true"
       apply_with_weight="true"
       only_selected="false"
       uniform="false" /><inkscape:path-effect
       effect="bspline"
       id="path-effect28"
       is_visible="true"
       lpeversion="1.3"
       weight="33.333333"
       steps="2"
       helper_size="0"
       apply_no_weight="true"
       apply_with_weight="true"
       only_selected="false"
       uniform="false" /><inkscape:path-effect
       effect="bspline"
       id="path-effect25"
       is_visible="true"
       lpeversion="1.3"
       weight="33.333333"
       steps="2"
       helper_size="0"
       apply_no_weight="true"
       apply_with_weight="true"
       only_selected="false"
       uniform="false" /><inkscape:path-effect
       effect="bspline"
       id="path-effect23"
       is_visible="true"
       lpeversion="1.3"
       weight="33.333333"
       steps="2"
       helper_size="0"
       apply_no_weight="true"
       apply_with_weight="true"
       only_selected="false"
       uniform="false" /><inkscape:path-effect
       effect="bspline"
       id="path-effect22"
       is_visible="true"
       lpeversion="1.3"
       weight="33.333333"
       steps="2"
       helper_size="0"
       apply_no_weight="true"
       apply_with_weight="true"
       only_selected="false"
       uniform="false" /><inkscape:path-effect
       effect="bspline"
       id="path-effect20"
       is_visible="true"
       lpeversion="1.3"
       weight="33.333333"
       steps="2"
       helper_size="0"
       apply_no_weight="true"
       apply_with_weight="true"
       only_selected="false"
       uniform="false" /><inkscape:path-effect
       effect="bspline"
       id="path-effect17"
       is_visible="true"
       lpeversion="1.3"
       weight="33.333333"
       steps="2"
       helper_size="0"
       apply_no_weight="true"
       apply_with_weight="true"
       only_selected="false"
       uniform="false" /><inkscape:path-effect
       effect="bspline"
       id="path-effect15"
       is_visible="true"
       lpeversion="1.3"
       weight="33.333333"
       steps="2"
       helper_size="0"
       apply_no_weight="true"
       apply_with_weight="true"
       only_selected="false"
       uniform="false" /><inkscape:path-effect
       effect="bspline"
       id="path-effect14"
       is_visible="true"
       lpeversion="1.3"
       weight="33.333333"
       steps="2"
       helper_size="0"
       apply_no_weight="true"
       apply_with_weight="true"
       only_selected="false"
       uniform="false" /><inkscape:path-effect
       effect="bspline"
       id="path-effect13"
       is_visible="true"
       lpeversion="1.3"
       weight="33.333333"
       steps="2"
       helper_size="0"
       apply_no_weight="true"
       apply_with_weight="true"
       only_selected="false"
       uniform="false" /></defs><g
     inkscape:groupmode="layer"
     id="layer2"
     inkscape:label="Layer 2"
     style="opacity:1"
     transform="translate(-19.546801,-113.50312)"><path
       id="path12"
       style="color:#000000;opacity:1;fill:#e6e6e6;stroke-linejoin:round;-inkscape-stroke:none"
       d="m 83.824442,106.67981 a 5.0005,5.0005 0 0 0 -4.334103,2.4939 l -20.466967,35.35185 a 5.0005,5.0005 0 0 0 4.322216,7.50394 l 40.847632,0.0506 a 5.0005,5.0005 0 0 0 4.33979,-7.49618 L 88.150276,109.18353 a 5.0005,5.0005 0 0 0 -4.325834,-2.50372 z m 1.104325,7.46001 c 0.52568,0.007 1.021394,0.0192 1.457792,0.0439 0.871698,0.0493 1.505955,0.14623 1.435055,4.31654 -0.07087,4.17029 -0.847012,12.41293 -1.612822,16.57935 -0.760588,4.138 -1.511249,4.2543 -2.261877,4.3434 v 0.002 c -0.003,-2.7e-4 -0.0053,-7.4e-4 -0.0083,-10e-4 -0.003,2.7e-4 -0.0048,7.4e-4 -0.0078,10e-4 v -0.002 c -0.771728,-0.0891 -1.543379,-0.20467 -2.314587,-4.3434 -0.776362,-4.16642 -1.552287,-12.40906 -1.623157,-16.57935 -0.07087,-4.17031 0.562995,-4.267 1.503268,-4.3217 0.940268,-0.0546 2.184897,-0.0258 3.431315,-0.0382 z m -0.939477,28.2143 a 3.5,3.5 0 0 1 3.500044,3.50004 3.5,3.5 0 0 1 -3.500044,3.50005 3.5,3.5 0 0 1 -3.500045,-3.50005 3.5,3.5 0 0 1 3.500045,-3.50004 z"
       transform="translate(19.067469,22.648214)" /><path
       id="path21"
       style="opacity:1;fill:none;stroke:#e6e6e6;stroke-width:2;stroke-linejoin:round;stroke-dasharray:none;stroke-opacity:1"
       d="m 126.66093,168.07123 c -0.0597,-0.26856 -1.59642,-5.28159 -2.26782,-7.35548 -0.60342,-1.86389 -1.64117,-5.19205 -1.38752,-7.93731 0.25366,-2.74526 2.22303,-4.89366 7.45996,-7.07197 5.23692,-2.17831 13.74104,-4.3864 21.49938,-5.68442 6.55283,-1.09633 12.57336,-1.54341 18.51124,-1.8896"
       sodipodi:nodetypes="cssssc" /><path
       id="path26"
       style="opacity:1;fill:none;stroke:#e6e6e6;stroke-width:2;stroke-linejoin:round;stroke-dasharray:none;stroke-opacity:1"
       d="m 169.8089,138.21677 c 1.8799,-0.11936 3.75979,-0.23872 3.10329,2.8945 -0.65651,3.13321 -3.84928,9.51875 -7.05706,12.9503 -1.25427,1.34177 -2.51081,2.23189 -3.76874,2.84695" /><path
       id="path32"
       style="opacity:1;fill:none;stroke:#e6e6e6;stroke-width:2;stroke-linejoin:round;stroke-dasharray:none;stroke-opacity:1"
       d="m 161.53077,156.71307 c 1.18576,0.24129 1.43162,0.56635 0.94947,1.99923 -0.45021,1.33798 -2.24711,3.60803 -4.56811,5.70747 -0.88424,0.79984 -1.83891,1.5767 -2.83717,2.33933 m -28.41404,1.26738 c -0.74599,-3.55091 0.0941,-12.83988 0.93999,-14.30808 0.77438,-1.34404 5.5352,-2.58111 12.62218,-1.65606 5.91245,0.77174 13.72503,2.659 21.85262,4.78649"
       sodipodi:nodetypes="cssccssc" /><path
       id="path38"
       style="opacity:1;fill:none;stroke:#e6e6e6;stroke-width:2;stroke-linejoin:round;stroke-dasharray:none;stroke-opacity:1"
       d="m 154.361,166.39898 c 0.9217,0.43864 0.86056,0.36254 1.29128,0.73179 0.46937,0.40239 0.8884,0.781 0.0655,2.20525 -0.82291,1.42426 -3.37593,3.68188 -6.16113,5.32767 -1.01483,0.59967 -2.06048,1.11811 -3.12571,1.58491 m -19.6627,-8.19473 c 0.1899,-3.05946 2.5895,-9.48742 4.08323,-10.16703 2.85707,-1.2999 6.84714,0.76214 12.34368,3.15699 3.6542,1.59214 7.31488,3.37916 11.48574,5.50045" /><path
       id="path46"
       style="opacity:1;fill:none;stroke:#e6e6e6;stroke-width:2;stroke-linecap:round;stroke-linejoin:round;stroke-dasharray:none;stroke-opacity:1"
       d="m 127.16976,168.2769 c 1.03389,-1.98337 4.63686,-4.47201 5.47648,-3.88202 1.39453,0.97992 1.00121,2.1032 1.24386,5.95395 0.16665,2.64484 -1.4e-4,5.85837 -0.27135,9.33314"
       sodipodi:nodetypes="cssc" /><path
       id="path45"
       style="opacity:1;fill:none;stroke:#e6e6e6;stroke-width:2;stroke-linecap:round;stroke-linejoin:round;stroke-dasharray:none;stroke-opacity:1"
       d="m 146.3073,176.09846 c 0.422,1.11829 0.844,2.23658 -0.52752,2.93287 -1.37152,0.69629 -4.53642,0.97058 -7.72251,0.92838 -1.4759,-0.0196 -2.92466,-0.17031 -4.40749,-0.29423 m -7.03885,-11.57903 c 0.44309,-1.85677 3.70602,-5.90676 5.4519,-6.72359 1.5371,-0.71915 3.2726,0.70427 6.76465,4.51284 2.32003,2.53031 4.91475,6.248 7.60168,10.36421"
       sodipodi:nodetypes="cscccssc" /><path
       id="path49"
       style="opacity:1;fill:none;stroke:#e6e6e6;stroke-width:2;stroke-linecap:round;stroke-linejoin:round;stroke-dasharray:none;stroke-opacity:1"
       d="m 113.68072,145.5573 c 23.30021,-10.35072 46.6005,-20.70147 69.90069,-31.05218 m 4.8e-4,-0.002 c 0.7875,1.17317 1.53537,2.8163 1.05726,5.10911 -0.65646,3.14807 -2.86455,8.28038 -5.25173,11.5777 -2.38719,3.29732 -4.95339,4.75946 -6.96757,5.87845 -0.73636,0.40909 -1.39894,0.77232 -2.0147,1.10644" /><use
       x="0"
       y="0"
       xlink:href="#path21"
       id="use50"
       transform="matrix(-1,0,0,1,205.3305,0)"
       style="opacity:1;stroke:#e6e6e6;stroke-opacity:1;fill:#666666" /><use
       x="0"
       y="0"
       xlink:href="#path26"
       id="use51"
       transform="matrix(-1,0,0,1,205.3305,0)"
       style="opacity:1;stroke:#e6e6e6;stroke-opacity:1;fill:#666666" /><use
       x="0"
       y="0"
       xlink:href="#path32"
       id="use52"
       transform="matrix(-1,0,0,1,205.3305,0)"
       style="opacity:1;stroke:#e6e6e6;stroke-opacity:1;fill:#666666" /><use
       x="0"
       y="0"
       xlink:href="#path38"
       id="use53"
       transform="matrix(-1,0,0,1,205.3305,0)"
       style="opacity:1;stroke:#e6e6e6;stroke-opacity:1;fill:#666666" /><use
       x="0"
       y="0"
       xlink:href="#path46"
       id="use54"
       transform="matrix(-1,0,0,1,205.3305,0)"
       style="opacity:1;stroke:#e6e6e6;stroke-opacity:1;fill:#666666" /><use
       x="0"
       y="0"
       xlink:href="#path45"
       id="use55"
       transform="matrix(-1,0,0,1,205.3305,0)"
       style="opacity:1;stroke:#e6e6e6;stroke-opacity:1;fill:#666666" /><use
       x="0"
       y="0"
       xlink:href="#path49"
       id="use56"
       transform="matrix(-1,0,0,1,205.3305,0)"
       style="opacity:1;stroke:#e6e6e6;stroke-opacity:1;fill:#666666" /></g></svg>
